<?xml version="1.0" encoding="UTF-8" standalone="no"?>
<!-- Created with Inkscape (http://www.inkscape.org/) -->

<svg
   xmlns:dc="http://purl.org/dc/elements/1.1/"
   xmlns:cc="http://creativecommons.org/ns#"
   xmlns:rdf="http://www.w3.org/1999/02/22-rdf-syntax-ns#"
   xmlns:svg="http://www.w3.org/2000/svg"
   xmlns="http://www.w3.org/2000/svg"
   xmlns:sodipodi="http://sodipodi.sourceforge.net/DTD/sodipodi-0.dtd"
   xmlns:inkscape="http://www.inkscape.org/namespaces/inkscape"
   version="1.1"
   id="svg2"
   width="50"
   height="50"
   viewBox="0 0 50 50"
   sodipodi:docname="link-up.svg"
   inkscape:version="0.92.4 (5da689c313, 2019-01-14)"
   inkscape:export-filename="/home/jupiter007/Bureau/Jeux javascript/Jeu javascript/link-up.png"
   inkscape:export-xdpi="96"
   inkscape:export-ydpi="96">
  <metadata
     id="metadata8">
    <rdf:RDF>
      <cc:Work
         rdf:about="">
        <dc:format>image/svg+xml</dc:format>
        <dc:type
           rdf:resource="http://purl.org/dc/dcmitype/StillImage" />
        <dc:title></dc:title>
      </cc:Work>
    </rdf:RDF>
  </metadata>
  <defs
     id="defs6" />
  <sodipodi:namedview
     pagecolor="#ffffff"
     bordercolor="#666666"
     borderopacity="1"
     objecttolerance="10"
     gridtolerance="10"
     guidetolerance="10"
     inkscape:pageopacity="0"
     inkscape:pageshadow="2"
     inkscape:window-width="1920"
     inkscape:window-height="1011"
     id="namedview4"
     showgrid="false"
     inkscape:zoom="1"
     inkscape:cx="2.3844204"
     inkscape:cy="27.746451"
     inkscape:window-x="1920"
     inkscape:window-y="32"
     inkscape:window-maximized="1"
     inkscape:current-layer="svg2" />
  <g
     id="g817"
     transform="matrix(0.1,0,0,0.1,6.25,0)">
    <path
       style="fill:#fea441"
       d="M 62,484.5 V 469 H 46.5 31 V 390.5 312 H 15.5 0 V 281 250 H 15.5 31 V 218.5 187 H 15.5 0 V 124.5 62 H 15.5 31 V 78 94 H 46.5 62 V 62.5 31 H 78 94 V 15.5 0 H 187.5 281 V 15.5 31 H 296.5 312 V 62.5 94 h 16 16 V 78 62 H 359.5 375 V 124.5 187 H 359.5 344 v 47 47 h 15.5 15.5 v 47 47 H 359.5 344 V 390.5 406 H 328 312 V 421.5 437 H 296.5 281 v 16 16 H 250 219 V 453 437 H 187.5 156 v 16 16 H 140.5 125 V 484.5 500 H 93.5 62 Z"
       id="path823"
       inkscape:connector-curvature="0" />
    <path
       style="fill:#bcfe17"
       d="M 62,484.5 V 469 H 46.5 31 V 390.5 312 H 15.5 0 V 281 250 H 15.5 31 V 234.5 219 H 46.5 62 V 187.5 156 H 46.5 31 V 125 94 H 46.5 62 V 62.5 31 H 78 94 V 15.5 0 H 187.5 281 V 15.5 31 H 296.5 312 V 62.5 94 h 16 16 v 31 31 h -16 -16 v 31.5 31.5 h 16 16 v 62.5 62.5 h -16 -16 v 15.5 15.5 h 16 16 V 390.5 406 H 328 312 V 421.5 437 H 296.5 281 v 16 16 H 250 219 V 453 437 H 187.5 156 v 16 16 H 140.5 125 V 484.5 500 H 93.5 62 Z"
       id="path821"
       inkscape:connector-curvature="0" />
    <path
       style="fill:#e6590f"
       d="M 62,484.5 V 469 H 46.5 31 V 437.5 406 h 47 47 v 15.5 15.5 h 15.5 15.5 v 16 16 H 140.5 125 V 484.5 500 H 93.5 62 Z M 219,453 v -16 h 31 31 V 421.5 406 H 296.5 312 V 421.5 437 H 296.5 281 v 16 16 H 250 219 Z M 94,359.5 V 344 H 62.5 31 V 328 312 H 15.5 0 V 281 250 H 15.5 31 V 234.5 219 H 46.5 62 V 187.5 156 H 46.5 31 V 140.5 125 H 46.5 62 V 140.5 156 H 93.5 125 v 15.5 15.5 h 15.5 15.5 v 16 16 H 187.5 219 V 203 187 H 234.5 250 V 171.5 156 h 31 31 V 140.5 125 h 16 16 v 15.5 15.5 h -16 -16 v 31.5 31.5 h 16 16 V 281.5 344 H 312.5 281 V 359.5 375 H 187.5 94 Z M 281,297 V 250 H 296.5 312 V 234.5 219 H 296.5 281 V 234.5 250 H 187.5 94 V 234.5 219 H 78 62 v 46.5 46.5 h 16 16 v 16 16 h 93.5 93.5 z"
       id="path819"
       inkscape:connector-curvature="0" />
  </g>
</svg>
