<?xml version="1.0" encoding="UTF-8" standalone="no"?>
<!-- Created with Inkscape (http://www.inkscape.org/) -->

<svg
   xmlns:dc="http://purl.org/dc/elements/1.1/"
   xmlns:cc="http://creativecommons.org/ns#"
   xmlns:rdf="http://www.w3.org/1999/02/22-rdf-syntax-ns#"
   xmlns:svg="http://www.w3.org/2000/svg"
   xmlns="http://www.w3.org/2000/svg"
   xmlns:sodipodi="http://sodipodi.sourceforge.net/DTD/sodipodi-0.dtd"
   xmlns:inkscape="http://www.inkscape.org/namespaces/inkscape"
   version="1.1"
   id="svg2"
   width="50"
   height="50"
   viewBox="0 0 50 50"
   sodipodi:docname="link-right.svg"
   inkscape:export-filename="/home/jupiter007/Bureau/Jeux javascript/Jeu javascript/link-right.png"
   inkscape:export-xdpi="96"
   inkscape:export-ydpi="96"
   inkscape:version="0.92.4 (5da689c313, 2019-01-14)">
  <metadata
     id="metadata8">
    <rdf:RDF>
      <cc:Work
         rdf:about="">
        <dc:format>image/svg+xml</dc:format>
        <dc:type
           rdf:resource="http://purl.org/dc/dcmitype/StillImage" />
        <dc:title></dc:title>
      </cc:Work>
    </rdf:RDF>
  </metadata>
  <defs
     id="defs6" />
  <sodipodi:namedview
     pagecolor="#ffffff"
     bordercolor="#666666"
     borderopacity="1"
     objecttolerance="10"
     gridtolerance="10"
     guidetolerance="10"
     inkscape:pageopacity="0"
     inkscape:pageshadow="2"
     inkscape:window-width="1920"
     inkscape:window-height="1011"
     id="namedview4"
     showgrid="true"
     inkscape:zoom="16"
     inkscape:cx="19.488398"
     inkscape:cy="25.611621"
     inkscape:window-x="1920"
     inkscape:window-y="32"
     inkscape:window-maximized="1"
     inkscape:current-layer="svg2">
    <inkscape:grid
       type="xygrid"
       id="grid825" />
  </sodipodi:namedview>
  <g
     id="g817"
     transform="matrix(0.09850107,0,0,0.1,2,0)">
    <path
       style="fill:#fea441"
       d="M 33,483.5 V 467 H 16.5 0 V 433.5 400 H 16.5 33 V 366.5 333 h 17 17 v -33 -33 h 33 33 V 250 233 H 116.5 100 V 216.5 200 H 83.5 67 V 166.5 133 H 50 33 v 17 17 H 16.5 0 V 133.5 100 H 16.5 33 V 83.5 67 H 66.5 100 V 50 33 H 133.5 167 V 16.5 0 H 233.5 300 V 16.5 33 h 50 50 v 17 17 h 17 17 V 83.5 100 H 417 400 V 133.5 167 H 433.5 467 V 300 433 H 450.5 434 v 17 17 H 417 400 V 483.5 500 H 350 300 V 483.5 467 H 216.5 133 V 483.5 500 H 83 33 Z M 434,383 v -50 h -17 -17 v 17 17 H 383.5 367 v 16.5 16.5 h 16.5 16.5 v 16.5 16.5 h 17 17 z m 0,-149.5 V 200 h -17 -17 v 33.5 33.5 h 17 17 z"
       id="path823"
       inkscape:connector-curvature="0" />
    <path
       style="fill:#bcfe17"
       d="M 33,483.5 V 467 H 16.5 0 V 433.5 400 H 16.5 33 V 366.5 333 h 17 17 v -33 -33 h 33 33 V 250 233 H 116.5 100 V 216.5 200 H 83.5 67 V 166.5 133 H 50 33 v 17 17 H 16.5 0 V 133.5 100 H 16.5 33 V 83.5 67 H 66.5 100 V 50 33 H 133.5 167 V 16.5 0 H 233.5 300 V 16.5 33 h 50 50 v 17 17 h 17 17 V 83.5 100 H 417 400 V 116.5 133 H 383.5 367 V 166.5 200 H 350.5 334 V 166.5 133 H 300.5 267 V 166.5 200 H 250 233 V 166.5 133 H 216.5 200 V 116.5 100 H 183.5 167 V 83.5 67 h -17 -17 v 50 50 h 17 17 v 16.5 16.5 h 16.5 16.5 v 16.5 16.5 h 33.5 33.5 v 17 17 h -17 -17 v 50 50 h 33.5 33.5 v -17 -17 h 17 17 v -33 -33 h 33 33 v 50 50 H 383.5 367 v 16.5 16.5 h 16.5 16.5 v 16.5 16.5 h 17 17 V 316.5 200 H 450.5 467 V 316.5 433 H 450.5 434 v 17 17 H 417 400 V 483.5 500 H 350 300 V 483.5 467 H 216.5 133 V 483.5 500 H 83 33 Z"
       id="path821"
       inkscape:connector-curvature="0" />
    <path
       style="fill:#e6590f"
       d="M 33,483.5 V 467 H 16.5 0 V 433.5 400 H 33.5 67 V 416.5 433 H 83.5 100 v 17 17 H 116.5 133 V 483.5 500 H 83 33 Z m 267,0 V 467 H 333.5 367 V 450 433 H 300 233 V 416.5 400 H 166.5 100 V 383.5 367 H 83.5 67 V 333.5 300 H 83.5 100 V 283.5 267 h 33.5 33.5 v 16.5 16.5 h 33 33 v 50 50 H 283.5 334 V 383.5 367 H 350.5 367 V 333.5 300 H 350.5 334 V 283.5 267 h 33 33 v 50 50 H 383.5 367 v 33 33 H 400.5 434 V 316.5 200 H 450.5 467 V 316.5 433 H 450.5 434 v 17 17 H 417 400 V 483.5 500 H 350 300 Z M 100,200 V 167 H 133.5 167 V 183.5 200 H 183.5 200 V 216.5 233 H 150 100 Z M 233,166.5 V 133 H 216.5 200 V 116.5 100 H 216.5 233 V 83.5 67 h 17 17 V 50 33 h 66.5 66.5 v 17 17 h 17 17 V 83.5 100 H 417 400 V 116.5 133 H 333.5 267 v 33.5 33.5 h -17 -17 z m 101,17 V 167 H 350.5 367 V 183.5 200 H 350.5 334 Z"
       id="path819"
       inkscape:connector-curvature="0" />
  </g>
</svg>
