<?xml version="1.0" encoding="UTF-8" standalone="no"?>
<!-- Created with Inkscape (http://www.inkscape.org/) -->

<svg
   xmlns:dc="http://purl.org/dc/elements/1.1/"
   xmlns:cc="http://creativecommons.org/ns#"
   xmlns:rdf="http://www.w3.org/1999/02/22-rdf-syntax-ns#"
   xmlns:svg="http://www.w3.org/2000/svg"
   xmlns="http://www.w3.org/2000/svg"
   xmlns:sodipodi="http://sodipodi.sourceforge.net/DTD/sodipodi-0.dtd"
   xmlns:inkscape="http://www.inkscape.org/namespaces/inkscape"
   version="1.1"
   id="svg2"
   width="14"
   height="32"
   viewBox="0 0 14 32"
   sodipodi:docname="sword-down.svg"
   inkscape:version="0.92.4 (5da689c313, 2019-01-14)"
   inkscape:export-filename="/home/jupiter007/Bureau/Jeux javascript/Jeu javascript/sword.png"
   inkscape:export-xdpi="96"
   inkscape:export-ydpi="96">
  <metadata
     id="metadata8">
    <rdf:RDF>
      <cc:Work
         rdf:about="">
        <dc:format>image/svg+xml</dc:format>
        <dc:type
           rdf:resource="http://purl.org/dc/dcmitype/StillImage" />
        <dc:title></dc:title>
      </cc:Work>
    </rdf:RDF>
  </metadata>
  <defs
     id="defs6" />
  <sodipodi:namedview
     pagecolor="#ffffff"
     bordercolor="#666666"
     borderopacity="1"
     objecttolerance="10"
     gridtolerance="10"
     guidetolerance="10"
     inkscape:pageopacity="0"
     inkscape:pageshadow="2"
     inkscape:window-width="1920"
     inkscape:window-height="1011"
     id="namedview4"
     showgrid="false"
     inkscape:zoom="11.25"
     inkscape:cx="4.5217058"
     inkscape:cy="13.896436"
     inkscape:window-x="1920"
     inkscape:window-y="32"
     inkscape:window-maximized="1"
     inkscape:current-layer="svg2" />
  <g
     id="g817"
     transform="matrix(0,0.1,-0.1,0,14,0)">
    <path
       style="fill:#fea441"
       d="M 60,130 V 120 H 70 80 V 110 100 H 40 0 V 70 40 H 40 80 V 30 20 H 70 60 V 10 0 h 20 20 v 20 20 h 100 100 v 10 10 h 10 10 v 10 10 h -10 -10 v 10 10 H 200 100 v 20 20 H 80 60 Z"
       id="path823"
       inkscape:connector-curvature="0" />
    <path
       style="fill:#bcfe17"
       d="M 60,130 V 120 H 70 80 V 70 20 H 70 60 V 10 0 h 20 20 v 20 20 h 100 100 v 10 10 h 10 10 v 10 10 h -10 -10 v 10 10 H 200 100 v 20 20 H 80 60 Z M 0,70 V 40 h 10 10 v 30 30 H 10 0 Z m 40,0 V 40 h 10 10 v 30 30 H 50 40 Z"
       id="path821"
       inkscape:connector-curvature="0" />
    <path
       style="fill:#e6590f"
       d="M 100,70 V 40 h 100 100 v 10 10 h 10 10 v 10 10 h -10 -10 v 10 10 H 200 100 Z"
       id="path819"
       inkscape:connector-curvature="0" />
  </g>
</svg>
